# xmcd
#
# Track frame offsets: 
#        150
#        13057
#        26570
#        39042
#        53932
#        68025
#        81687
#        92517
#        105747
#        116645
#        126980
#        138522
#        153152
#        165652
#        178810
#        190130
#        201947
#        216015
#        228800
#        239840
#
# Disc length: 3385 seconds
#
# Revision: 4
# Processed by: cddbd v1.5.2PL0 Copyright (c) Steve Scherf et al.
# Submitted via: ExactAudioCopyFreeDBPlugin 1.0
#
DISCID=170d3714
DTITLE=Muddy Waters - The blues
DYEAR=1995
DGENRE=Blues
TTITLE0=40 days and 40 nights
TTITLE1=Rollin' and tumblin', part 1
TTITLE2=All aboard
TTITLE3=Rock me
TTITLE4=Rollin' stone
TTITLE5=I'm ready
TTITLE6=Standing around crying
TTITLE7=She moves me
TTITLE8=I feel so good
TTITLE9=Mean red spider
TTITLE10=Goin' home
TTITLE11=Baby, please don't go
TTITLE12=Train fare blues
TTITLE13=So glad I'm living
TTITLE14=She's all right
TTITLE15=You're gonna miss me
TTITLE16=Close to you
TTITLE17=Stuff you gotta watch
TTITLE18=Diamonds at your feet
TTITLE19=You're gonna need my help
EXTD=
EXTT0=
EXTT1=
EXTT2=
EXTT3=
EXTT4=
EXTT5=
EXTT6=
EXTT7=
EXTT8=
EXTT9=
EXTT10=
EXTT11=
EXTT12=
EXTT13=
EXTT14=
EXTT15=
EXTT16=
EXTT17=
EXTT18=
EXTT19=
PLAYORDER=
